# xmcd CD database file
#
# Track frame offsets:
#	150
#	26687
#	48595
#	63177
#	73495
#	98235
#	115107
#	131760
#	152037
#	168570
#	180865
#	205212
#
# Disc length: 3164 seconds
#
# Revision: 13
# Processed by: cddbd v1.5.2PL0 Copyright (c) Steve Scherf et al.
# Submitted via: jetAudio 7
#
DISCID=a80c5a0c
DTITLE=Son House - Father Of The Delta Blues: The Complete 1965 Session
DTITLE=s - Disc 2
DYEAR=1992
DGENRE=Blues
TTITLE0=Death Letter (alt. take)
TTITLE1=Levee Camp Moan (alt. take)
TTITLE2=Grinnin' In Your Face (alt. take)
TTITLE3=John The Revelator (alt. take)
TTITLE4=Preachin' Blues (alt. take)
TTITLE5=President Kennedy (prev. unissued)
TTITLE6=A Down The Staff (prev. unissued)
TTITLE7=Motherless Children (prev. unissued)
TTITLE8=Yonder Comes My Mother (prev. unissued)
TTITLE9=Shake It And Break It (prev. unissued)
TTITLE10=Pony Blues (prev. unissued)
TTITLE11=Downhearted Blues (prev. unissued)
EXTD=
EXTT0=
EXTT1=
EXTT2=
EXTT3=
EXTT4=
EXTT5=
EXTT6=
EXTT7=
EXTT8=
EXTT9=
EXTT10=
EXTT11=
PLAYORDER=
